<svg width="24" height="24" viewBox="0 0 24 24" fill="none" xmlns="http://www.w3.org/2000/svg">
<g clip-path="url(#clip0_696_432)">
<path d="M1 12C1 5.92487 5.92487 1 12 1H21C22.1046 1 23 1.89543 23 3V21C23 22.1046 22.1046 23 21 23H12C5.92487 23 1 18.0751 1 12Z" fill="url(#paint0_linear_696_432)"/>
<path d="M8 10.7165C8 8.84149 8.96176 7.09144 10.561 6.0563C10.7891 5.90869 11.0935 6.06855 11.0935 6.33591V10.8713H14.9065V10.7165C14.9065 8.84149 15.8683 7.09144 17.4675 6.0563C17.6956 5.90869 18 6.06855 18 6.33591V13.4229C18 15.2383 17.0688 16.9328 15.5203 17.9351C15.2574 18.1052 14.9065 17.921 14.9065 17.6128V13.247H11.0935V13.4229C11.0935 15.2383 10.1623 16.9328 8.61376 17.9351C8.35088 18.1052 8 17.921 8 17.6128V10.7165Z" fill="white"/>
</g>
<defs>
<linearGradient id="paint0_linear_696_432" x1="100%" y1="0%" x2="0%" y2="100%" gradientUnits="objectBoundingBox">
<stop stop-color="#00F261"/>
<stop offset="0.152702" stop-color="#00EBB1"/>
<stop offset="0.527816" stop-color="#00B2FF"/>
<stop offset="1" stop-color="#0066FF"/>
</linearGradient>
<clipPath id="clip0_696_432">
<rect width="24" height="24" fill="white"/>
</clipPath>
</defs>
</svg>
